# xmcd
#
# Track frame offsets: 
#        150
#        11986
#        25741
#        47019
#        57732
#        70302
#        89667
#        100862
#        113064
#        124684
#        137208
#        147076
#        160629
#        173042
#        185244
#        198476
#        208746
#        221580
#        234218
#        249258
#
# Disc length: 3467 seconds
#
# Revision: 0
# Processed by: cddbd v1.5.2PL0 Copyright (c) Steve Scherf et al.
# Submitted via: ExactAudioCopyFreeDBPlugin 1.0
#
DISCID=260d8914
DTITLE=Various Artist - Kings Of Country
DYEAR=2010
DGENRE=Country
TTITLE0=Johnny Cash - Ring Of Fire
TTITLE1=Glen Campbell - Wichita Lineman
TTITLE2=Marty Robbins - El Paso
TTITLE3=Roger Miller - King Of The Road
TTITLE4=Charley Pride - Crystal Chandeliers
TTITLE5=Kenny Rogers - She Believes In Me
TTITLE6=Don Gibson - Oh Lonesome Me
TTITLE7=Charlie Rich - Behind Closed Doors
TTITLE8=Boxcar Willie - Six Days On The Road
TTITLE9=Bobby Bare - Four Strong Winds
TTITLE10=Buck Owens - I've Got A Tiger By The Tale
TTITLE11=Jimmy Dean - Big Bad John
TTITLE12=Hank Snow - I'm Moving On
TTITLE13=Eddy Arnold - The Cattle Call
TTITLE14=Hank Locklin - Please Help Me, I'm Falling
TTITLE15=Ferlin Husky - Wings Of A Dove
TTITLE16=Jim Reeves - Distant Drums
TTITLE17=George Hamilton IV - BJ the DJ
TTITLE18=Merle Haggard - San Antonio Rose
TTITLE19=Willie Nelson and Waylon Jennings - Mama Don't Let Your Babies 
TTITLE19=Grow Up To Be Cowboys
EXTD=
EXTT0=
EXTT1=
EXTT2=
EXTT3=
EXTT4=
EXTT5=
EXTT6=
EXTT7=
EXTT8=
EXTT9=
EXTT10=
EXTT11=
EXTT12=
EXTT13=
EXTT14=
EXTT15=
EXTT16=
EXTT17=
EXTT18=
EXTT19=
PLAYORDER=
